<?xml version="1.0" standalone="no"?>
<!DOCTYPE svg PUBLIC "-//W3C//DTD SVG 20010904//EN"
 "http://www.w3.org/TR/2001/REC-SVG-20010904/DTD/svg10.dtd">
<svg version="1.0" xmlns="http://www.w3.org/2000/svg"
 width="128.000000pt" height="128.000000pt" viewBox="0 0 128.000000 128.000000"
 preserveAspectRatio="xMidYMid meet">

<g transform="translate(0.000000,128.000000) scale(0.100000,-0.100000)"
fill="#000000" stroke="none">
<path d="M598 1233 c12 -2 32 -2 45 0 12 2 2 4 -23 4 -25 0 -35 -2 -22 -4z"/>
<path d="M515 1212 c-16 -10 -47 -21 -69 -25 -40 -6 -76 -31 -76 -53 0 -7 -8
-15 -17 -17 -12 -3 -8 -5 9 -6 23 -1 27 -6 30 -33 2 -27 9 -35 36 -43 17 -5
32 -15 32 -22 0 -15 -26 -17 -35 -3 -3 6 -13 10 -21 10 -22 0 -17 -38 7 -50
30 -17 108 8 122 38 13 27 43 29 52 2 4 -13 15 -20 30 -20 14 0 29 9 35 20 14
25 47 26 55 1 7 -23 35 -36 35 -16 0 9 8 6 25 -10 29 -30 56 -32 78 -7 22 25
21 45 -3 67 -22 20 -27 45 -9 45 6 0 13 -9 16 -20 7 -25 39 -22 37 3 -2 21 8
21 46 2 30 -15 39 -46 22 -71 -11 -17 -48 -34 -74 -35 -13 0 -17 -3 -10 -6 6
-2 10 -9 6 -14 -9 -15 13 -10 26 6 16 19 20 19 47 -3 22 -16 19 -17 -75 -19
-107 -3 -154 8 -177 40 l-15 21 0 -21 c0 -47 -84 -69 -144 -38 -16 9 -31 14
-33 11 -2 -2 13 -11 33 -21 42 -20 117 -16 141 7 12 13 20 13 51 2 20 -7 53
-13 72 -14 l35 0 -30 -20 c-42 -27 -75 -90 -82 -155 -11 -108 73 -214 184
-231 63 -9 121 1 148 26 l22 21 7 -62 c3 -34 6 -152 6 -261 0 -148 3 -197 12
-192 8 5 10 78 5 275 -5 236 -4 272 11 301 19 39 27 133 14 168 -7 19 -5 28 7
37 14 11 14 12 -6 13 -30 0 -40 20 -18 36 25 18 13 29 -14 12 -34 -21 -47 2
-29 49 25 61 -11 113 -66 99 -17 -4 -28 2 -44 24 -14 18 -35 31 -56 36 -32 6
-34 8 -24 30 9 19 8 28 -7 44 -10 11 -23 20 -29 19 -6 0 -6 -3 2 -6 17 -7 33
-39 27 -55 -4 -10 -16 -13 -35 -10 -56 8 -77 -34 -40 -81 24 -30 25 -37 6 -37
-8 0 -18 9 -21 20 -7 22 -34 28 -36 8 -3 -32 -19 63 -20 115 0 50 -4 60 -25
74 -14 8 -27 13 -31 9 -3 -3 -1 -6 5 -6 17 0 42 -30 42 -51 0 -10 -6 -19 -13
-19 -7 0 -27 -25 -45 -55 -18 -30 -37 -55 -41 -55 -5 0 -15 24 -23 53 -20 72
-39 72 -68 2 -12 -31 -25 -54 -29 -52 -3 2 -21 10 -38 17 -38 17 -44 35 -9 26
30 -7 43 9 25 30 -10 12 -23 14 -51 10 -29 -5 -38 -3 -38 8 0 22 40 46 77 46
17 0 35 5 39 11 3 6 20 17 38 25 17 7 24 13 16 14 -8 0 -28 -8 -45 -18z m75
-138 c12 -36 20 -68 17 -70 -3 -3 -8 4 -12 15 -4 15 -15 21 -36 21 -16 0 -29
-4 -29 -8 0 -5 -7 -17 -15 -28 -14 -18 -10 -5 36 114 5 12 10 22 13 22 2 0 14
-30 26 -66z m133 -14 c3 -36 3 -55 0 -42 -3 17 -11 22 -38 22 -21 0 -35 -6
-39 -16 -4 -9 -9 -14 -12 -11 -3 3 12 32 33 66 21 33 41 57 44 53 4 -4 9 -36
12 -72z m-255 40 c5 -13 3 -13 -11 -1 -14 11 -20 11 -32 1 -23 -19 -18 -30 19
-45 43 -18 50 -29 36 -55 -9 -16 -19 -20 -42 -18 -17 2 -33 9 -36 16 -3 11 0
11 16 1 10 -7 27 -9 36 -6 27 11 18 36 -19 51 -37 16 -46 41 -23 64 16 16 50
11 56 -8z m392 -5 c6 -8 10 -20 7 -27 -4 -9 -6 -7 -6 3 -2 29 -51 36 -51 8 0
-5 9 -22 20 -37 22 -30 19 -56 -7 -66 -21 -8 -63 20 -62 42 0 13 3 12 11 -5
14 -29 58 -32 58 -5 0 11 -9 27 -20 37 -23 21 -25 36 -8 53 16 16 43 15 58 -3z
m194 -91 c19 -19 19 -17 1 -60 -13 -32 -16 -34 -37 -22 -23 12 -23 12 7 19 24
5 27 7 13 13 -10 5 -18 18 -18 30 -1 19 -2 18 -16 -6 -17 -32 -18 -33 -33 -14
-10 11 -7 19 10 35 27 25 52 27 73 5z m-69 -95 c95 -27 139 -92 133 -199 -7
-123 -75 -188 -186 -177 -78 8 -134 45 -166 109 -41 82 -30 163 30 223 50 51
112 65 189 44z"/>
<path d="M551 1087 c-14 -37 -14 -37 9 -37 21 0 27 24 10 50 -7 11 -11 9 -19
-13z"/>
<path d="M686 1088 c-21 -30 -20 -38 4 -38 16 0 20 7 20 30 0 36 -4 37 -24 8z"/>
<path d="M928 789 c-21 -12 -24 -49 -6 -67 36 -36 93 11 69 57 -13 23 -36 26
-63 10z m22 -19 c0 -5 -4 -10 -10 -10 -5 0 -10 5 -10 10 0 6 5 10 10 10 6 0
10 -4 10 -10z"/>
<path d="M783 1193 c9 -2 25 -2 35 0 9 3 1 5 -18 5 -19 0 -27 -2 -17 -5z"/>
<path d="M297 1092 c-10 -10 -17 -27 -17 -36 0 -12 -5 -16 -16 -12 -28 11 -62
-5 -74 -35 -11 -24 -9 -35 9 -71 22 -45 15 -72 -14 -48 -8 7 -19 10 -23 6 -4
-4 1 -12 11 -17 24 -14 10 -32 -19 -25 -27 7 -31 -1 -8 -18 12 -9 13 -17 5
-39 -14 -37 -14 -108 0 -144 8 -19 11 -122 9 -322 -1 -208 2 -291 9 -286 7 4
11 91 11 266 0 142 4 259 8 259 5 0 17 -9 27 -20 40 -44 149 -49 226 -10 138
71 159 272 37 360 l-39 29 28 4 c17 2 7 5 -27 7 -76 5 -80 5 -119 -3 -30 -6
-32 -5 -20 9 8 10 21 13 38 9 21 -5 24 -4 14 6 -7 7 -13 22 -13 33 0 10 -3 16
-6 13 -10 -10 -44 33 -44 54 0 10 10 25 22 33 12 9 18 16 12 16 -6 0 -18 -8
-27 -18z m-11 -85 c24 -21 25 -24 10 -36 -14 -11 -16 -11 -16 3 0 9 -4 16 -10
16 -5 0 -10 -4 -10 -10 0 -5 -7 -7 -15 -4 -8 4 -15 1 -15 -4 0 -6 10 -14 21
-17 20 -7 20 -8 5 -23 -14 -14 -18 -14 -30 -2 -24 25 -29 65 -11 84 22 22 39
20 71 -7z m141 -102 c50 -21 72 -42 94 -90 50 -109 -11 -237 -129 -271 -103
-30 -177 4 -216 98 -31 74 -11 184 42 231 49 44 145 59 209 32z"/>
<path d="M308 789 c-21 -12 -24 -49 -6 -67 21 -21 57 -14 70 14 21 45 -21 79
-64 53z m22 -19 c0 -5 -4 -10 -10 -10 -5 0 -10 5 -10 10 0 6 5 10 10 10 6 0
10 -4 10 -10z"/>
<path d="M540 960 c-9 -6 -10 -10 -3 -10 6 0 15 5 18 10 8 12 4 12 -15 0z"/>
<path d="M582 668 c-7 -7 -12 -16 -12 -20 0 -5 -9 -18 -20 -30 -28 -30 -26
-76 3 -89 13 -6 27 -20 32 -31 23 -50 91 -50 101 0 3 16 15 32 27 37 33 15 34
59 3 90 -14 14 -26 30 -26 34 0 22 -88 29 -108 9z m128 -63 c6 -8 10 -22 8
-31 -2 -15 -16 -18 -81 -19 -43 -1 -80 2 -83 7 -3 4 0 16 5 27 9 15 18 18 50
14 21 -3 47 0 57 6 25 14 29 14 44 -4z m-80 -97 c0 -30 -1 -31 -16 -16 -9 9
-14 24 -11 32 11 27 27 17 27 -16z m38 5 c-4 -39 -28 -42 -28 -4 0 21 5 31 16
31 11 0 14 -8 12 -27z"/>
<path d="M829 327 c-107 -36 -137 -64 -118 -114 4 -12 19 -29 34 -39 23 -15
34 -15 120 -3 l95 13 0 46 c0 46 -30 110 -55 116 -5 1 -39 -7 -76 -19z m90
-35 c5 -10 11 -31 13 -47 3 -29 3 -29 -76 -42 -69 -12 -81 -12 -102 2 -47 30
-27 57 63 85 74 24 90 24 102 2z"/>
<path d="M850 270 c-13 -8 -12 -10 3 -10 9 0 17 5 17 10 0 12 -1 12 -20 0z"/>
<path d="M880 269 c0 -5 5 -7 10 -4 6 3 10 8 10 11 0 2 -4 4 -10 4 -5 0 -10
-5 -10 -11z"/>
<path d="M868 243 c7 -3 16 -2 19 1 4 3 -2 6 -13 5 -11 0 -14 -3 -6 -6z"/>
<path d="M363 283 c-48 -14 -53 -19 -59 -50 -8 -40 0 -111 14 -125 14 -14 162
41 195 73 17 18 27 38 27 58 0 59 -69 76 -177 44z m143 -27 c19 -14 19 -15 -2
-43 -14 -19 -46 -37 -95 -55 -41 -15 -75 -28 -77 -28 -2 0 -2 26 0 57 l3 58
50 12 c69 16 98 15 121 -1z"/>
<path d="M340 210 c0 -13 11 -13 30 0 12 8 11 10 -7 10 -13 0 -23 -4 -23 -10z"/>
</g>
</svg>
